<?xml version="1.0" encoding="utf-8"?>
<!-- Generator: Adobe Illustrator 22.1.0, SVG Export Plug-In . SVG Version: 6.00 Build 0)  -->
<svg version="1.1" id="Layer_1" xmlns="http://www.w3.org/2000/svg" xmlns:xlink="http://www.w3.org/1999/xlink" x="0px" y="0px"
	 viewBox="0 0 380 80" style="enable-background:new 0 0 380 80;" xml:space="preserve">
<style type="text/css">
	.st0{fill:#263238;}
	.st1{fill:#899194;}
	.st2{fill:#ECEFF1;}
</style>
<g>
	<path class="st1" d="M201,0v80h20V60h60V0H201z M260.7,39.7H221V20h39.7V39.7z"/>
	<polygon class="st1" points="181,20 181,0 101,0 101,50 160.7,50 160.7,59.7 101,59.7 101,80 181,80 181,30 121,30 121,20 	"/>
	<polygon class="st1" points="301,0 301,80 321,80 321,20 361,20 361,30 381,30 381,0 	"/>
	<polygon class="st1" points="1,50 21,50 21,59.7 60.7,59.7 60.7,0 81,0 81,80 1,80 	"/>
</g>
</svg>
