<?xml version="1.0" encoding="utf-8"?>
<!-- Generator: Adobe Illustrator 22.1.0, SVG Export Plug-In . SVG Version: 6.00 Build 0)  -->
<svg version="1.1" id="Layer_1" xmlns="http://www.w3.org/2000/svg" xmlns:xlink="http://www.w3.org/1999/xlink" x="0px" y="0px"
	 viewBox="0 0 380 80" style="enable-background:new 0 0 380 80;" xml:space="preserve">
<style type="text/css">
	.st0{fill:#263238;}
	.st1{fill:#ECEFF1;}
</style>
<g>
	<path class="st0" d="M200,0v80h20V60h60V0H200z M259.7,39.7H220V20h39.7V39.7z"/>
	<polygon class="st0" points="180,20 180,0 100,0 100,50 159.7,50 159.7,59.7 100,59.7 100,80 180,80 180,30 120,30 120,20 	"/>
	<polygon class="st0" points="300,0 300,80 320,80 320,20 360,20 360,30 380,30 380,0 	"/>
	<polygon class="st0" points="0,50 20,50 20,59.7 59.7,59.7 59.7,0 80,0 80,80 0,80 	"/>
</g>
</svg>
