<?xml version="1.0" encoding="utf-8"?>
<!-- Generator: Adobe Illustrator 23.0.2, SVG Export Plug-In . SVG Version: 6.00 Build 0)  -->
<svg version="1.1" id="Layer_1" xmlns="http://www.w3.org/2000/svg" xmlns:xlink="http://www.w3.org/1999/xlink" x="0px" y="0px"
	 viewBox="0 0 512 512" style="enable-background:new 0 0 512 512;" xml:space="preserve">
<style type="text/css">
	.st0{fill:#DAA520;}
</style>
<path class="st0" d="M470.7,132.1h-46.5C405.6,56.4,337.4,0,256,0S106.4,56.4,87.8,132.1H41.3C18.5,132.1,0,150.7,0,173.4v247.7
	c0,22.8,18.5,41.3,41.3,41.3h107.4v33h-33V512h280.8v-16.5h-33v-33h107.4c22.8,0,41.3-18.5,41.3-41.3V173.4
	C512,150.7,493.5,132.1,470.7,132.1z M256,16.5c86.5,0,156.9,70.4,156.9,156.9S342.5,330.3,256,330.3S99.1,259.9,99.1,173.4
	S169.5,16.5,256,16.5z M41.3,148.6h43.3c-1.2,8.1-2,16.3-2,24.8c0,95.6,77.8,173.4,173.4,173.4S429.4,269,429.4,173.4
	c0-8.4-0.8-16.7-2-24.8h43.3c13.7,0,24.8,11.1,24.8,24.8v223h-479v-223C16.5,159.8,27.6,148.6,41.3,148.6z M346.8,495.5H165.2v-33
	h181.7V495.5z M470.7,445.9H41.3c-13.7,0-24.8-11.1-24.8-24.8v-8.3h479v8.3C495.5,434.8,484.4,445.9,470.7,445.9z"/>
<path class="st0" d="M310.7,242.5l90.6-72.5l-90.6-72.5l-10.3,12.9l74.5,59.6l-74.5,59.6L310.7,242.5z"/>
<path class="st0" d="M211.6,229.6L137.1,170l74.5-59.6l-10.3-12.9L110.6,170l90.6,72.5L211.6,229.6z"/>
<path class="st0" d="M219,253.3l58.5-172l15.6,5.3l-58.5,172L219,253.3z"/>
<path class="st0" d="M33,363.4h82.6v16.5H33V363.4z"/>
<path class="st0" d="M33,330.3h82.6v16.5H33V330.3z"/>
<path class="st0" d="M33,297.3h82.6v16.5H33V297.3z"/>
<path class="st0" d="M396.4,363.4H479v16.5h-82.6V363.4z"/>
<path class="st0" d="M396.4,330.3H479v16.5h-82.6V330.3z"/>
<path class="st0" d="M396.4,297.3H479v16.5h-82.6V297.3z"/>
</svg>
