<?xml version="1.0" encoding="utf-8"?>
<!-- Generator: Adobe Illustrator 23.0.2, SVG Export Plug-In . SVG Version: 6.00 Build 0)  -->
<svg version="1.1" id="Layer_1" xmlns="http://www.w3.org/2000/svg" xmlns:xlink="http://www.w3.org/1999/xlink" x="0px" y="0px"
	 viewBox="0 0 512 512" style="enable-background:new 0 0 512 512;" xml:space="preserve">
<style type="text/css">
	.st0{fill:#DAA520;}
</style>
<g>
	<g>
		<path class="st0" d="M379.8,198.3v-18c9.6-3.4,16.5-12.5,16.5-23.2c0-10.1-6.1-18.7-14.7-22.6l15.5-62.1L338.6,4L280,72.3
			l15.5,62.1c-8.7,3.9-14.7,12.5-14.7,22.6c0,10.7,6.9,19.8,16.5,23.2v18h-82.6v-126L173.4,0l-41.3,72.2v126H0.1v115.6h132.1v156.9
			c0,22.8,18.5,41.3,41.3,41.3s41.3-18.5,41.3-41.3V313.9h82.6v156.9c0,22.8,18.5,41.3,41.3,41.3s41.3-18.5,41.3-41.3V446h8.3
			c13.7,0,24.8-11.1,24.8-24.8v-48.3l-4.1-2.4c-2.6-1.5-4.2-4.2-4.2-7.1s1.6-5.6,4.2-7.1l4.1-2.4v-23.6h-16.5V345
			c-5.2,4.6-8.3,11.3-8.3,18.4c0,7,3.1,13.7,8.3,18.4v39.4c0,4.5-3.7,8.3-8.3,8.3h-8.3V313.9h132.1V198.3L379.8,198.3L379.8,198.3z
			 M132.2,297.3H16.6v-82.6h16.5v24.8h16.5v-24.8h16.5v33h16.5v-33h16.5v24.8h16.5v-24.8h16.5L132.2,297.3L132.2,297.3z M173.4,33.3
			l18.8,32.9h-37.6L173.4,33.3z M148.7,82.7h16.5v322h-16.5V82.7z M198.2,470.7c0,13.7-11.1,24.8-24.8,24.8s-24.8-11.1-24.8-24.8
			v-16.5h49.5V470.7z M198.2,437.7h-49.5v-16.5h49.5V437.7z M198.2,404.7h-16.5v-322h16.5L198.2,404.7L198.2,404.7z M338.6,74.4
			c4.6,0,8.3,3.7,8.3,8.3s-3.7,8.3-8.3,8.3c-4.6,0-8.3-3.7-8.3-8.3S334,74.4,338.6,74.4z M330.3,39v20.5
			c-9.6,3.4-16.5,12.5-16.5,23.2c0,13.7,11.1,24.8,24.8,24.8c13.7,0,24.8-11.1,24.8-24.8c0-10.7-6.9-19.8-16.5-23.2V39L379,76.6
			l-13.9,55.7H312l-13.9-55.7L330.3,39z M297.3,297.3h-82.6v-82.6h16.5v24.8h16.5v-24.8h16.5v33h16.5v-33h16.5V297.3L297.3,297.3z
			 M338.6,495.5c-13.7,0-24.8-11.1-24.8-24.8V446h49.5v24.8h0C363.3,484.4,352.2,495.5,338.6,495.5z M363.3,206.5v33v156.9h-49.5
			V181.8h49.5L363.3,206.5L363.3,206.5z M363.3,412.9v16.5h-49.5v-16.5H363.3z M371.6,165.2h-66c-4.6,0-8.3-3.7-8.3-8.3
			c0-4.5,3.7-8.3,8.3-8.3h66c4.6,0,8.3,3.7,8.3,8.3C379.8,161.5,376.1,165.2,371.6,165.2z M495.4,297.3L495.4,297.3H379.8v-57.8
			v-24.8h16.5v33h16.5v-33h16.5v24.8h16.5v-24.8h16.5v33h16.5v-33h16.5L495.4,297.3L495.4,297.3z"/>
	</g>
</g>
</svg>
