<?xml version="1.0" encoding="utf-8"?>
<!-- Generator: Adobe Illustrator 23.0.2, SVG Export Plug-In . SVG Version: 6.00 Build 0)  -->
<svg version="1.1" id="Layer_1" xmlns="http://www.w3.org/2000/svg" xmlns:xlink="http://www.w3.org/1999/xlink" x="0px" y="0px"
	 viewBox="0 0 512 512" style="enable-background:new 0 0 512 512;" xml:space="preserve">
<style type="text/css">
	.st0{fill:#DAA520;}
</style>
<path class="st0" d="M247.7,0h16.5v49.5h-16.5V0z"/>
<path class="st0" d="M80.8,76l11.7-11.7l35,35L115.9,111L80.8,76z"/>
<path class="st0" d="M16.5,231.2h49.5v16.5H16.5V231.2z"/>
<path class="st0" d="M445.9,231.2h49.5v16.5h-49.5V231.2z"/>
<path class="st0" d="M384.5,99.3l35-35L431.2,76l-35,35L384.5,99.3z"/>
<path class="st0" d="M369.9,370.1c37.8-32.9,59.6-80.5,59.6-130.6c0-48.1-19.2-92.7-54.1-125.8c-34.9-33.1-80.5-49.8-128.7-47.3
	c-90,4.7-162.1,79.1-164,169.4c-1.1,51,20.2,99.7,58.5,133.6c3.9,3.4,7.3,7.2,10.3,11.3c-11,2.5-19.3,12.3-19.3,24.1
	c0,6.4,2.5,12.1,6.4,16.5c-4,4.4-6.4,10.1-6.4,16.5c0,13.7,11.1,24.8,24.8,24.8h18.2c15.4,30.3,46.5,49.5,80.9,49.5
	c34.3,0,65.4-19.3,80.9-49.5h18.2c13.7,0,24.8-11.1,24.8-24.8c0-6.4-2.5-12.1-6.4-16.5c4-4.4,6.4-10.1,6.4-16.5
	c0-11.9-8.4-21.8-19.6-24.2C363.1,376.7,366.3,373.2,369.9,370.1z M99.1,236c1.7-81.6,66.9-149,148.4-153.2
	c43.6-2.3,84.9,12.9,116.5,42.8c31.6,29.9,48.9,70.4,48.9,113.8c0,45.3-19.6,88.3-53.9,118.2c-7.3,6.3-13.2,13.8-17.9,22.2H170.6
	c-4.8-8.6-11-16.3-18.5-23C117.5,326.2,98.1,282.2,99.1,236z M256,495.5c-25.1,0-48-12.7-61.6-33h123.3
	C304,482.8,281.1,495.5,256,495.5z M355.1,445.9H156.9c-4.5,0-8.3-3.7-8.3-8.3s3.7-8.3,8.3-8.3h198.2c4.5,0,8.3,3.7,8.3,8.3
	S359.6,445.9,355.1,445.9z M363.4,404.6c0,4.6-3.7,8.3-8.3,8.3H156.9c-4.5,0-8.3-3.7-8.3-8.3s3.7-8.3,8.3-8.3h198.2
	C359.6,396.4,363.4,400.1,363.4,404.6z"/>
<path class="st0" d="M156.9,272.5c0,13.7,11.1,24.8,24.8,24.8h24.8v-15.6c0-4.4,3-8.4,6.8-9c2.5-0.4,4.9,0.2,6.8,1.8
	c1.9,1.6,2.9,3.9,2.9,6.3v16.5h140.4c13.7,0,24.8-11.1,24.8-24.8v-24.8h-24.8c-2.4,0-4.7-1.1-6.3-2.9c-1.6-1.9-2.2-4.3-1.8-6.8
	c0.6-3.8,4.6-6.8,9-6.8h23.9v-24.8c0-13.7-11.1-24.8-24.8-24.8h-16.5v-7.4c0-12.5-8.9-23.4-20.7-25.3c-7.2-1.2-14.6,0.9-20.1,5.6
	c-5.6,4.7-8.7,11.6-8.7,18.9v8.3H223v15.6c0,4.4-3,8.4-6.8,9c-2.5,0.4-4.9-0.2-6.8-1.8c-1.9-1.6-2.9-3.9-2.9-6.3v-16.5h-24.8
	c-13.7,0-24.8,11.1-24.8,24.8v8.3h-7.4c-12.5,0-23.4,8.9-25.3,20.7c-1.2,7.3,0.9,14.6,5.6,20.1c4.7,5.5,11.6,8.7,18.9,8.7h8.3V272.5
	z M272.5,198.2h41.3v-24.8c0-2.4,1.1-4.7,2.9-6.3c1.9-1.6,4.3-2.3,6.8-1.8c3.8,0.6,6.8,4.6,6.8,9v23.9h33c4.5,0,8.3,3.7,8.3,8.3v8.3
	h-7.4c-12.5,0-23.4,8.9-25.3,20.7c-1.2,7.3,0.9,14.6,5.6,20.1c4.7,5.5,11.6,8.7,18.9,8.7h8.3v8.3c0,4.6-3.7,8.3-8.3,8.3h-90.8v-16.5
	h8.3c7.3,0,14.2-3.2,18.9-8.7c4.7-5.5,6.7-12.9,5.6-20.1c-1.9-11.8-12.8-20.7-25.3-20.7h-7.4V198.2z M148.6,247.7
	c-2.4,0-4.7-1.1-6.3-2.9c-1.6-1.9-2.2-4.3-1.8-6.8c0.6-3.8,4.6-6.8,9-6.8h23.9v-24.8c0-4.6,3.7-8.3,8.3-8.3h8.3
	c0,7.3,3.2,14.2,8.7,18.9c5.5,4.7,12.9,6.7,20.1,5.6c11.5-1.9,20.3-12.3,20.7-24.4H256v33h23.9c4.4,0,8.4,3,9,6.8
	c0.4,2.5-0.2,4.9-1.8,6.8c-1.6,1.9-3.9,2.9-6.3,2.9H256v33h-16.5c0-7.3-3.2-14.2-8.7-18.9c-5.5-4.7-12.9-6.7-20.1-5.6
	c-11.5,1.9-20.2,12.3-20.7,24.4h-8.3c-4.5,0-8.3-3.7-8.3-8.3v-24.8H148.6z"/>
</svg>
