<?xml version="1.0" encoding="utf-8"?>
<!-- Generator: Adobe Illustrator 22.1.0, SVG Export Plug-In . SVG Version: 6.00 Build 0)  -->
<svg version="1.1" id="Layer_1" xmlns="http://www.w3.org/2000/svg" xmlns:xlink="http://www.w3.org/1999/xlink" x="0px" y="0px"
	 viewBox="0 0 48 48" style="enable-background:new 0 0 48 48;" xml:space="preserve">
<style type="text/css">
	.st0{fill-rule:evenodd;clip-rule:evenodd;fill:#E4E4E4;}
	.st1{fill-rule:evenodd;clip-rule:evenodd;fill:#FAFAFA;}
	.st2{fill:#FAFAFA;}
</style>
<path class="st0" d="M40,48H8c-4.4,0-8-3.6-8-8V8c0-4.4,3.6-8,8-8h32c4.4,0,8,3.6,8,8v32C48,44.4,44.4,48,40,48z"/>
<path class="st2" d="M24,12c-6.6,0-12,5.4-12,12c0,6.6,5.4,12,12,12s12-5.4,12-12C36,17.4,30.6,12,24,12z M31.7,17.9
	c1.2,1.5,2,3.5,2.1,5.5c-2.6-0.5-4.8-0.5-6.7-0.1c-0.2-0.6-0.5-1.1-0.8-1.6C28.6,20.7,30.4,19.4,31.7,17.9z M30.3,16.3
	c-1.3,1.5-3,2.6-4.9,3.4c-0.2-0.4-0.4-0.7-0.6-1.1c-1.2-1.9-2.3-3.4-3.1-4.3c0.7-0.2,1.5-0.3,2.3-0.3C26.4,14.1,28.6,15,30.3,16.3z
	 M19.6,15.2c0.7,0.8,2.3,2.6,3.8,5.3c-3.5,1-7.1,1.1-8.9,1.1C15.1,18.8,17,16.4,19.6,15.2z M14.1,24c0-0.1,0-0.2,0-0.3
	c0.3,0,0.6,0,0.9,0c1.5,0,3.5-0.1,5.8-0.5c1.3-0.2,2.4-0.5,3.5-0.8c0.2,0.5,0.5,0.9,0.7,1.4c-2,0.7-3.6,1.6-4.8,2.6
	c-1.8,1.4-2.9,3-3.7,4.1C15,28.8,14.1,26.5,14.1,24z M18.1,32c0.6-0.9,1.7-2.5,3.4-3.9c1.3-1.1,2.7-1.8,4.3-2.3
	c0.8,2.2,1.5,4.7,1.8,7.4c-1.1,0.4-2.3,0.7-3.6,0.7C21.8,33.9,19.8,33.2,18.1,32z M29.6,32.1c-0.4-2.5-1-4.8-1.7-6.9
	c1.8-0.3,3.8-0.2,5.9,0.3C33.3,28.3,31.8,30.6,29.6,32.1z"/>
</svg>
