<?xml version="1.0" encoding="utf-8"?>
<!-- Generator: Adobe Illustrator 22.1.0, SVG Export Plug-In . SVG Version: 6.00 Build 0)  -->
<svg version="1.1" id="Layer_1" xmlns="http://www.w3.org/2000/svg" xmlns:xlink="http://www.w3.org/1999/xlink" x="0px" y="0px"
	 viewBox="0 0 48 48" style="enable-background:new 0 0 48 48;" xml:space="preserve">
<style type="text/css">
	.st0{fill-rule:evenodd;clip-rule:evenodd;fill:#E4E4E4;}
	.st1{fill-rule:evenodd;clip-rule:evenodd;fill:#FAFAFA;}
	.st2{fill:#FAFAFA;}
</style>
<path class="st0" d="M40,48H8c-4.4,0-8-3.6-8-8V8c0-4.4,3.6-8,8-8h32c4.4,0,8,3.6,8,8v32C48,44.4,44.4,48,40,48z"/>
<path class="st1" d="M27.7,16.1c0.7,0,1.5,0,2.2,0c0.1,0,0.2,0,0.3,0v-3.9c-0.4,0-0.8-0.1-1.2-0.1c-0.8,0-1.5-0.1-2.3-0.1
	c-1.2,0-2.3,0.3-3.2,1c-1.1,0.8-1.7,1.9-1.9,3.2c-0.1,0.5-0.1,1.1-0.1,1.7c0,0.9,0,1.7,0,2.6v0.3h-3.7v4.3h3.7V36h4.5V25.2h3.7
	c0.2-1.4,0.4-2.9,0.6-4.3c-0.3,0-0.6,0-0.8,0c-1,0-3.4,0-3.4,0s0-2.1,0-3.1C26,16.5,26.7,16.1,27.7,16.1z"/>
</svg>
