<?xml version="1.0" encoding="utf-8"?>
<!-- Generator: Adobe Illustrator 22.1.0, SVG Export Plug-In . SVG Version: 6.00 Build 0)  -->
<svg version="1.1" id="Layer_1" xmlns="http://www.w3.org/2000/svg" xmlns:xlink="http://www.w3.org/1999/xlink" x="0px" y="0px"
	 viewBox="0 0 48 48" style="enable-background:new 0 0 48 48;" xml:space="preserve">
<style type="text/css">
	.st0{fill-rule:evenodd;clip-rule:evenodd;fill:#E4E4E4;}
	.st1{fill-rule:evenodd;clip-rule:evenodd;fill:#FAFAFA;}
	.st2{fill:#FAFAFA;}
</style>
<path class="st0" d="M40,48H8c-4.4,0-8-3.6-8-8V8c0-4.4,3.6-8,8-8h32c4.4,0,8,3.6,8,8v32C48,44.4,44.4,48,40,48z"/>
<g>
	<path class="st2" d="M12.4,20h5v16h-5V20z M14.9,12c1.6,0,2.9,1.3,2.9,2.9c0,1.6-1.3,2.9-2.9,2.9c-1.6,0-2.9-1.3-2.9-2.9
		C12,13.3,13.3,12,14.9,12"/>
	<path class="st2" d="M20.5,20h4.8v2.2h0.1c0.7-1.3,2.3-2.6,4.7-2.6c5,0,6,3.3,6,7.6V36h-5v-7.8c0-1.9,0-4.2-2.6-4.2
		c-2.6,0-3,2-3,4.1V36h-5V20z"/>
</g>
</svg>
