<?xml version="1.0" encoding="utf-8"?>
<!-- Generator: Adobe Illustrator 22.1.0, SVG Export Plug-In . SVG Version: 6.00 Build 0)  -->
<svg version="1.1" id="Layer_1" xmlns="http://www.w3.org/2000/svg" xmlns:xlink="http://www.w3.org/1999/xlink" x="0px" y="0px"
	 viewBox="0 0 48 48" style="enable-background:new 0 0 48 48;" xml:space="preserve">
<style type="text/css">
	.st0{fill-rule:evenodd;clip-rule:evenodd;fill:#E4E4E4;}
	.st1{fill-rule:evenodd;clip-rule:evenodd;fill:#FAFAFA;}
	.st2{fill:#FAFAFA;}
</style>
<path class="st0" d="M40,48H8c-4.4,0-8-3.6-8-8V8c0-4.4,3.6-8,8-8h32c4.4,0,8,3.6,8,8v32C48,44.4,44.4,48,40,48z"/>
<path class="st1" d="M14.5,31.9c-0.9-0.3-1.5-0.9-1.8-1.8c-0.8-2.2-1-11.4,0.5-13.2c0.5-0.6,1.2-1,2-1.1c4.1-0.4,16.9-0.4,18.4,0.1
	c0.9,0.3,1.5,0.9,1.8,1.7c0.9,2.3,0.9,10.5-0.1,12.7c-0.3,0.6-0.7,1-1.3,1.3C32.4,32.6,16.5,32.6,14.5,31.9z M21,27.6
	c2.5-1.3,5-2.6,7.5-3.9c-2.5-1.3-5-2.6-7.5-3.9C21,22.5,21,25,21,27.6z"/>
</svg>
